<svg width="477" height="477" viewBox="0 0 479 479" fill="none" xmlns="http://www.w3.org/2000/svg">
<path fill-rule="evenodd" clip-rule="evenodd" d="M238.477 2C199.683 2 168.234 33.4489 168.234 72.243C168.234 111.037 199.683 142.486 238.477 142.486C277.271 142.486 308.72 111.037 308.72 72.243C308.72 33.4489 277.271 2 238.477 2ZM166.234 72.243C166.234 32.3443 198.578 0 238.477 0C278.375 0 310.72 32.3443 310.72 72.243C310.72 111.808 278.914 143.944 239.477 144.479V474.951C301.833 474.688 361.579 449.803 405.691 405.691C449.803 361.579 474.688 301.833 474.951 239.477H404.71C404.158 239.477 403.71 239.029 403.71 238.477C403.71 237.924 404.158 237.477 404.71 237.477H475.953C476.506 237.477 476.953 237.924 476.953 238.477C476.953 301.725 451.828 362.382 407.105 407.105C362.382 451.828 301.725 476.953 238.477 476.953C175.229 476.953 114.571 451.828 69.8482 407.105C25.1251 362.382 0 301.725 0 238.477C0 238.211 0.105357 237.957 0.292893 237.77C0.48043 237.582 0.734784 237.477 1 237.477H72.243C72.7953 237.477 73.243 237.924 73.243 238.477C73.243 239.029 72.7953 239.477 72.243 239.477H2.00211C2.26544 301.833 27.1502 361.579 71.2624 405.691C115.375 449.803 175.12 474.688 237.477 474.951V144.479C198.039 143.944 166.234 111.808 166.234 72.243Z" fill="white" fill-opacity="0.5"/>
</svg>
