<svg width="21" height="25" viewBox="0 0 21 25" fill="none" xmlns="http://www.w3.org/2000/svg">
<path fill-rule="evenodd" clip-rule="evenodd" d="M10.2609 2.10002C6.68415 2.10002 3.84853 5.04333 3.84853 7.99991V8.33884L3.55824 8.51379C1.50753 9.74972 1.12682 12.898 2.96256 15.1176C4.67404 17.1871 7.48198 17.4454 9.6771 16.2835V15.2369L6.56222 11.91C6.33574 11.6681 6.34824 11.2884 6.59014 11.0619C6.83204 10.8354 7.21173 10.8479 7.43821 11.0898L9.6771 13.4812V12.0111C9.67698 12.004 9.67698 11.9969 9.6771 11.9899V8.49991C9.6771 8.16853 9.94573 7.89991 10.2771 7.89991C10.6085 7.89991 10.8771 8.16853 10.8771 8.49991V10.9475L14.1946 8.98359C14.4797 8.81479 14.8477 8.90911 15.0165 9.19426C15.1853 9.47941 15.091 9.84741 14.8059 10.0162L10.8771 12.342V14.9983C10.8771 14.9993 10.8771 15.0003 10.8771 15.0013V16.2929C13.2745 17.6258 16.6048 17.0784 18.4267 14.9977C19.3362 13.9591 19.5677 12.7373 19.2898 11.5797C19.0086 10.4086 18.1977 9.28082 16.9829 8.5057L16.7057 8.32879V7.99991C16.7057 5.04684 13.8414 2.10002 10.2609 2.10002ZM9.6771 17.6098V23.9999C9.6771 24.3313 9.94573 24.5999 10.2771 24.5999C10.6085 24.5999 10.8771 24.3313 10.8771 23.9999V17.6295C13.6968 18.8552 17.2791 18.1298 19.3295 15.7883C20.5075 14.4429 20.8211 12.8176 20.4566 11.2995C20.1181 9.88946 19.202 8.59181 17.8966 7.67383C17.6998 4.12545 14.32 0.900024 10.2609 0.900024C6.20027 0.900024 2.85561 4.12558 2.65778 7.6689C0.0972157 9.46494 -0.0735987 13.3294 2.03783 15.8824C4.02537 18.2856 7.14943 18.6755 9.6771 17.6098Z" fill="#3A8480"/>
</svg>
