<svg width="24" height="22" viewBox="0 0 24 22" fill="none" xmlns="http://www.w3.org/2000/svg">
<path fill-rule="evenodd" clip-rule="evenodd" d="M2.25705 0.399902C2.58842 0.399902 2.85705 0.668532 2.85705 0.999902V2.21808H23.5999V21.5999H1.9999C1.11625 21.5999 0.399902 20.8836 0.399902 19.9999V18.3635C0.399902 17.5976 0.938146 16.9573 1.65705 16.8004V0.999902C1.65705 0.668532 1.92567 0.399902 2.25705 0.399902ZM2.85705 16.7635H22.3999V3.41808H2.85705V16.7635ZM22.3999 17.9635H1.9999C1.77899 17.9635 1.5999 18.1426 1.5999 18.3635V19.9999C1.5999 20.2208 1.77899 20.3999 1.9999 20.3999H22.3999V17.9635ZM15.0898 5.83881C15.3629 6.02654 15.4321 6.40009 15.2443 6.67315L10.2027 14.0065C10.0149 14.2796 9.64138 14.3487 9.36832 14.161C9.09526 13.9733 9.02608 13.5997 9.21381 13.3267L14.2555 5.99332C14.4432 5.72025 14.8168 5.65108 15.0898 5.83881ZM8.21482 7.17214C8.48788 7.35987 8.55706 7.73342 8.36933 8.00649L6.53599 10.6732C6.34826 10.9462 5.97472 11.0154 5.70165 10.8277C5.42859 10.6399 5.35941 10.2664 5.54714 9.99332L7.38048 7.32665C7.56821 7.05359 7.94176 6.98441 8.21482 7.17214ZM19.6732 8.50548C19.9462 8.69321 20.0154 9.06676 19.8277 9.33982L17.0777 13.3398C16.8899 13.6129 16.5164 13.6821 16.2433 13.4943C15.9703 13.3066 15.9011 12.933 16.0888 12.66L18.8388 8.65998C19.0265 8.38692 19.4001 8.31775 19.6732 8.50548Z" fill="#3A8480"/>
</svg>
