<svg width="23" height="23" viewBox="0 0 23 23" fill="none" xmlns="http://www.w3.org/2000/svg">
<path fill-rule="evenodd" clip-rule="evenodd" d="M6.81774 5.8999H15.1374C14.5838 4.71699 13.9774 3.70895 13.3315 2.9638C12.5343 2.04406 11.7454 1.5999 10.9776 1.5999C10.2098 1.5999 9.42091 2.04406 8.62368 2.9638C7.97778 3.70896 7.37141 4.71699 6.81774 5.8999ZM15.6578 7.0999H6.29736C4.68571 11.1016 3.72157 16.2699 3.60697 19.3999H18.3482C18.3438 19.2806 18.3382 19.1582 18.3313 19.0327C18.158 15.8644 17.2044 10.9401 15.6578 7.0999ZM17.0188 7.28863C18.3078 10.7165 19.1507 14.7989 19.444 17.8491C20.4585 16.8624 21.6435 14.9409 21.356 12.0595C21.1764 10.259 20.2646 9.07188 19.1828 8.30103C18.4759 7.79732 17.699 7.47472 17.0188 7.28863ZM19.546 19.3195C19.5551 19.5562 19.5597 19.7835 19.5597 19.9999V20.5999H2.39544V19.9999C2.39544 16.7807 3.42684 10.9575 5.2325 6.53258L3.22659 2.78292C3.07028 2.49074 3.18043 2.12716 3.47262 1.97085C3.76481 1.81454 4.12839 1.92469 4.2847 2.21688L5.84948 5.14193C6.40381 3.9959 7.02638 2.97445 7.71691 2.17781C8.62203 1.13362 9.71296 0.399902 10.9776 0.399902C12.2422 0.399902 13.3331 1.13362 14.2383 2.17781C15.0868 3.15674 15.8327 4.47513 16.4755 5.94699C17.441 6.09431 18.7307 6.50539 19.8792 7.32377C21.1948 8.26125 22.3306 9.74078 22.5501 11.9403C22.9442 15.8904 20.9195 18.3644 19.546 19.3195ZM0.399902 21.9999C0.399902 21.6685 0.668532 21.3999 0.999902 21.3999H20.9553C21.2866 21.3999 21.5553 21.6685 21.5553 21.9999C21.5553 22.3313 21.2866 22.5999 20.9553 22.5999H0.999902C0.668532 22.5999 0.399902 22.3313 0.399902 21.9999Z" fill="#3A8480"/>
</svg>
