<svg width="326" height="326" viewBox="0 0 326 326" fill="none" xmlns="http://www.w3.org/2000/svg">
<path d="M48.8804 48.0319C48.6461 47.7975 48.2662 47.7975 48.0319 48.0319C47.7975 48.2662 47.7975 48.6461 48.0319 48.8804L48.8804 48.0319ZM116.72 117.568C116.954 117.803 117.334 117.803 117.568 117.568C117.803 117.334 117.803 116.954 117.568 116.72L116.72 117.568ZM209.261 208.412C209.026 208.178 208.647 208.178 208.412 208.412C208.178 208.647 208.178 209.026 208.412 209.261L209.261 208.412ZM277.1 277.949C277.335 278.183 277.714 278.183 277.949 277.949C278.183 277.714 278.183 277.335 277.949 277.1L277.1 277.949ZM208.412 116.72C208.178 116.954 208.178 117.334 208.412 117.568C208.647 117.803 209.026 117.803 209.261 117.568L208.412 116.72ZM277.949 48.8804C278.183 48.6461 278.183 48.2662 277.949 48.0319C277.714 47.7975 277.335 47.7975 277.1 48.0319L277.949 48.8804ZM266.447 60.3827C266.681 60.1484 266.681 59.7685 266.447 59.5342C266.212 59.2999 265.833 59.2999 265.598 59.5342L266.447 60.3827ZM48.0319 277.1C47.7975 277.335 47.7975 277.714 48.0319 277.949C48.2662 278.183 48.6461 278.183 48.8804 277.949L48.0319 277.1ZM117.568 209.261C117.803 209.026 117.803 208.647 117.568 208.412C117.334 208.178 116.954 208.178 116.72 208.412L117.568 209.261ZM324.39 162.99C324.39 252.129 252.129 324.39 162.99 324.39V325.59C252.792 325.59 325.59 252.792 325.59 162.99H324.39ZM162.99 324.39C73.8515 324.39 1.59023 252.129 1.59023 162.99H0.390234C0.390234 252.792 73.1887 325.59 162.99 325.59V324.39ZM1.59023 162.99C1.59023 73.8515 73.8515 1.59023 162.99 1.59023V0.390234C73.1887 0.390234 0.390234 73.1887 0.390234 162.99H1.59023ZM162.99 1.59023C252.129 1.59023 324.39 73.8515 324.39 162.99H325.59C325.59 73.1887 252.792 0.390234 162.99 0.390234V1.59023ZM227.19 162.99C227.19 198.447 198.447 227.19 162.99 227.19V228.39C199.11 228.39 228.39 199.11 228.39 162.99H227.19ZM162.99 227.19C127.534 227.19 98.7902 198.447 98.7902 162.99H97.5902C97.5902 199.11 126.871 228.39 162.99 228.39V227.19ZM98.7902 162.99C98.7902 127.534 127.534 98.7902 162.99 98.7902V97.5902C126.871 97.5902 97.5902 126.871 97.5902 162.99H98.7902ZM162.99 98.7902C198.447 98.7902 227.19 127.534 227.19 162.99H228.39C228.39 126.871 199.11 97.5902 162.99 97.5902V98.7902ZM48.0319 48.8804L116.72 117.568L117.568 116.72L48.8804 48.0319L48.0319 48.8804ZM208.412 209.261L277.1 277.949L277.949 277.1L209.261 208.412L208.412 209.261ZM209.261 117.568L277.949 48.8804L277.1 48.0319L208.412 116.72L209.261 117.568ZM209.261 117.568L266.447 60.3827L265.598 59.5342L208.412 116.72L209.261 117.568ZM48.8804 277.949L117.568 209.261L116.72 208.412L48.0319 277.1L48.8804 277.949Z" fill="#222828" fill-opacity="0.5"/>
</svg>
