<svg width="18" height="20" viewBox="0 0 18 20" fill="none" xmlns="http://www.w3.org/2000/svg">
<path fill-rule="evenodd" clip-rule="evenodd" d="M5.44435 0.399994C5.77572 0.399994 6.04435 0.668623 6.04435 0.999994V2.19999H11.9555V0.999994C11.9555 0.668623 12.2241 0.399994 12.5555 0.399994C12.8868 0.399994 13.1555 0.668623 13.1555 0.999994V2.19999H15.2221C16.5423 2.19999 17.5999 3.28156 17.5999 4.59999V17.2C17.5999 18.5184 16.5423 19.6 15.2221 19.6H2.77768C1.45746 19.6 0.399902 18.5184 0.399902 17.2V4.59999C0.399902 3.28156 1.45746 2.19999 2.77768 2.19999H4.84435V0.999994C4.84435 0.668623 5.11298 0.399994 5.44435 0.399994ZM4.84435 3.39999H2.77768C2.13422 3.39999 1.5999 3.9302 1.5999 4.59999V7.59999H16.3999V4.59999C16.3999 3.9302 15.8656 3.39999 15.2221 3.39999H13.1555V4.59999C13.1555 4.93136 12.8868 5.19999 12.5555 5.19999C12.2241 5.19999 11.9555 4.93136 11.9555 4.59999V3.39999H6.04435V4.59999C6.04435 4.93136 5.77572 5.19999 5.44435 5.19999C5.11298 5.19999 4.84435 4.93136 4.84435 4.59999V3.39999ZM16.3999 8.79999H1.5999V17.2C1.5999 17.8698 2.13422 18.4 2.77768 18.4H15.2221C15.8656 18.4 16.3999 17.8698 16.3999 17.2V8.79999Z" fill="white"/>
</svg>
