<svg width="19" height="17" viewBox="0 0 19 17" fill="none" xmlns="http://www.w3.org/2000/svg">
<path d="M10.5942 2.02241L10.594 2.02265L9.86295 2.79295L9.50027 3.1751L9.1376 2.79295L8.40656 2.02265L8.40599 2.02205C6.70455 0.223318 3.98051 -0.0353455 2.17342 1.5392C0.0610377 3.3829 -0.0532537 6.70541 1.8404 8.7075L10.5942 2.02241ZM10.5942 2.02241C12.2996 0.223059 15.0201 -0.0351639 16.827 1.53911C18.9395 3.38282 19.0538 6.70533 17.1565 8.70739L17.1564 8.7075L9.976 16.289C9.97597 16.289 9.97593 16.289 9.9759 16.2891C9.70928 16.5703 9.28756 16.5703 9.02093 16.2891C9.0209 16.289 9.02087 16.289 9.02084 16.289L1.84061 8.70772L10.5942 2.02241Z" fill="#FF3838" stroke="#222828"/>
</svg>
