<svg width="20" height="16" viewBox="0 0 20 16" fill="none" xmlns="http://www.w3.org/2000/svg">
<path fill-rule="evenodd" clip-rule="evenodd" d="M1.63957 2.45956L9.9999 8.14923L18.3602 2.45956C18.226 1.97565 17.7654 1.59999 17.1999 1.59999H2.7999C2.2344 1.59999 1.77382 1.97565 1.63957 2.45956ZM18.3999 3.88409L10.3375 9.37102C10.1338 9.50965 9.86603 9.50965 9.66233 9.37102L1.5999 3.88409V13.25C1.5999 13.8653 2.12523 14.4 2.7999 14.4H17.1999C17.8746 14.4 18.3999 13.8653 18.3999 13.25V3.88409ZM0.399902 2.74999C0.399902 1.4403 1.49458 0.399994 2.7999 0.399994H17.1999C18.5052 0.399994 19.5999 1.4403 19.5999 2.74999V13.25C19.5999 14.5597 18.5052 15.6 17.1999 15.6H2.7999C1.49458 15.6 0.399902 14.5597 0.399902 13.25V2.74999Z" fill="white"/>
</svg>
