<svg width="22" height="22" viewBox="0 0 22 22" fill="none" xmlns="http://www.w3.org/2000/svg">
<path fill-rule="evenodd" clip-rule="evenodd" d="M2.12914 0.999902C2.12914 0.668532 2.39777 0.399902 2.72914 0.399902H9.76857C10.0999 0.399902 10.3686 0.668532 10.3686 0.999902V1.72812H11.6312V0.999902C11.6312 0.668532 11.8999 0.399902 12.2312 0.399902H19.2707C19.602 0.399902 19.8707 0.668532 19.8707 0.999902V1.72812H20.9999C21.3313 1.72812 21.5999 1.99675 21.5999 2.32812V19.6717C21.5999 20.0031 21.3313 20.2717 20.9999 20.2717H19.8707V20.9999C19.8707 21.3313 19.602 21.5999 19.2707 21.5999C18.9393 21.5999 18.6707 21.3313 18.6707 20.9999V20.2717H3.32914V20.9999C3.32914 21.3313 3.06052 21.5999 2.72914 21.5999C2.39777 21.5999 2.12914 21.3313 2.12914 20.9999V20.2717H0.999902C0.668532 20.2717 0.399902 20.0031 0.399902 19.6717V2.32812C0.399902 1.99675 0.668532 1.72812 0.999902 1.72812H2.12914V0.999902ZM2.72914 2.92812L1.5999 2.92812V7.05177L20.3999 7.05177V2.92812H19.271H12.2316H9.76896L2.72914 2.92812ZM9.16857 1.72812H3.32914V1.5999H9.16857V1.72812ZM12.8312 1.72812H18.6707V1.5999H12.8312V1.72812ZM20.3999 8.25177L1.5999 8.25177V19.0717H2.72762C2.72812 19.0717 2.72863 19.0717 2.72914 19.0717C2.72965 19.0717 2.73016 19.0717 2.73067 19.0717H19.2691C19.2696 19.0717 19.2702 19.0717 19.2707 19.0717C19.2712 19.0717 19.2717 19.0717 19.2722 19.0717H20.3999V8.25177ZM3.873 4.44609C3.57323 4.44609 3.32914 4.69018 3.32914 4.98994C3.32914 5.2906 3.57277 5.5338 3.873 5.5338C4.17323 5.5338 4.41686 5.2906 4.41686 4.98994C4.41686 4.68929 4.17323 4.44609 3.873 4.44609ZM2.12914 4.98994C2.12914 4.02743 2.91049 3.24609 3.873 3.24609C4.83505 3.24609 5.61686 4.02563 5.61686 4.98994C5.61686 5.95426 4.83505 6.7338 3.873 6.7338C2.91095 6.7338 2.12914 5.95426 2.12914 4.98994ZM8.62472 4.44609C8.32495 4.44609 8.08086 4.69018 8.08086 4.98994C8.08086 5.2906 8.32449 5.5338 8.62472 5.5338C8.92495 5.5338 9.16857 5.2906 9.16857 4.98994C9.16857 4.68929 8.92495 4.44609 8.62472 4.44609ZM6.88086 4.98994C6.88086 4.02743 7.66221 3.24609 8.62472 3.24609C9.58677 3.24609 10.3686 4.02563 10.3686 4.98994C10.3686 5.95426 9.58677 6.7338 8.62472 6.7338C7.66267 6.7338 6.88086 5.95426 6.88086 4.98994ZM13.3751 4.44609C13.0753 4.44609 12.8312 4.69018 12.8312 4.98994C12.8312 5.2906 13.0749 5.5338 13.3751 5.5338C13.6753 5.5338 13.9189 5.2906 13.9189 4.98994C13.9189 4.68883 13.6762 4.44609 13.3751 4.44609ZM11.6312 4.98994C11.6312 4.02743 12.4126 3.24609 13.3751 3.24609C14.3389 3.24609 15.1189 4.02609 15.1189 4.98994C15.1189 5.95426 14.3371 6.7338 13.3751 6.7338C12.413 6.7338 11.6312 5.95426 11.6312 4.98994ZM18.1268 4.44609C17.827 4.44609 17.5829 4.69018 17.5829 4.98994C17.5829 5.2906 17.8266 5.5338 18.1268 5.5338C18.427 5.5338 18.6707 5.2906 18.6707 4.98994C18.6707 4.68929 18.427 4.44609 18.1268 4.44609ZM16.3829 4.98994C16.3829 4.02743 17.1643 3.24609 18.1268 3.24609C19.0889 3.24609 19.8707 4.02563 19.8707 4.98994C19.8707 5.95426 19.0889 6.7338 18.1268 6.7338C17.1648 6.7338 16.3829 5.95426 16.3829 4.98994ZM2.12914 9.28277C2.12914 8.9514 2.39777 8.68277 2.72914 8.68277H19.2693C19.6007 8.68277 19.8693 8.9514 19.8693 9.28277V17.9236C19.8693 18.255 19.6007 18.5236 19.2693 18.5236H2.72914C2.39777 18.5236 2.12914 18.255 2.12914 17.9236V9.28277ZM3.32914 9.88277V17.3236H18.6693V9.88277H3.32914Z" fill="#3A8480"/>
</svg>
