<svg width="26" height="30" viewBox="0 0 26 30" fill="none" xmlns="http://www.w3.org/2000/svg">
<path fill-rule="evenodd" clip-rule="evenodd" d="M12.9999 0.399902C13.3313 0.399902 13.5999 0.668532 13.5999 0.999902V5.11371L17.7772 3.44282C18.0848 3.31975 18.434 3.4694 18.5571 3.77707C18.6802 4.08474 18.5305 4.43392 18.2228 4.55699L13.5999 6.40615V13.9553L20.154 10.1321L19.5965 5.39275C19.5578 5.06365 19.7932 4.76548 20.1223 4.72677C20.4514 4.68806 20.7496 4.92347 20.7883 5.25257L21.2847 9.47255L24.6977 7.48163C24.9839 7.31467 25.3513 7.41135 25.5183 7.69758C25.6852 7.98381 25.5886 8.3512 25.3023 8.51817L21.839 10.5384L25.2911 13.4032C25.5461 13.6148 25.5812 13.9931 25.3696 14.2481C25.158 14.5031 24.7797 14.5383 24.5247 14.3267L20.7356 11.1821L14.1907 14.9999L20.547 18.7077L24.5193 15.8876C24.7895 15.6958 25.164 15.7594 25.3559 16.0296C25.5477 16.2998 25.4841 16.6743 25.2139 16.8661L21.6849 19.3715L25.3023 21.4816C25.5885 21.6486 25.6852 22.016 25.5182 22.3022C25.3512 22.5885 24.9838 22.6851 24.6976 22.5182L21.0236 20.375L20.2646 24.789C20.2084 25.1156 19.8982 25.3348 19.5716 25.2787C19.245 25.2225 19.0258 24.9123 19.082 24.5857L19.917 19.7295L13.5999 16.0445V23.5937L18.2228 25.4428C18.5305 25.5659 18.6802 25.9151 18.5571 26.2227C18.434 26.5304 18.0848 26.6801 17.7772 26.557L13.5999 24.8861V28.9999C13.5999 29.3313 13.3313 29.5999 12.9999 29.5999C12.6686 29.5999 12.3999 29.3313 12.3999 28.9999V24.8861L8.22283 26.557C7.91516 26.6801 7.56598 26.5304 7.44291 26.2227C7.31985 25.9151 7.4695 25.5659 7.77717 25.4428L12.3999 23.5937V16.0445L6.0437 19.7524L6.3444 24.4238C6.36568 24.7544 6.11487 25.0398 5.78418 25.0611C5.45349 25.0824 5.16816 24.8315 5.14688 24.5008L4.88473 20.4284L1.30239 22.5182C1.01616 22.6851 0.648772 22.5885 0.481802 22.3022C0.314832 22.016 0.411512 21.6486 0.697742 21.4816L4.37788 19.3349L0.925818 16.4701C0.670819 16.2584 0.635653 15.8802 0.847272 15.6252C1.05889 15.3702 1.43716 15.335 1.69216 15.5466L5.48132 18.6912L11.8092 14.9999L5.15474 11.1181L1.42921 13.8891C1.16332 14.0868 0.78746 14.0316 0.5897 13.7657C0.39194 13.4998 0.44717 13.1239 0.71306 12.9262L4.02783 10.4608L0.697677 8.51817C0.411446 8.3512 0.314765 7.98381 0.481733 7.69758C0.648702 7.41135 1.01609 7.31467 1.30232 7.48164L4.66994 9.44609L5.42893 5.03204C5.48509 4.70546 5.79536 4.48624 6.12193 4.54239C6.44851 4.59855 6.66773 4.90882 6.61158 5.23539L5.77656 10.0916L12.3999 13.9553V6.4061L7.77717 4.55699C7.4695 4.43392 7.31985 4.08474 7.44291 3.77707C7.56598 3.4694 7.91516 3.31975 8.22283 3.44282L12.3999 5.11366V0.999902C12.3999 0.668532 12.6686 0.399902 12.9999 0.399902Z" fill="#3A8480"/>
</svg>
