<svg width="24" height="16" viewBox="0 0 24 16" fill="none" xmlns="http://www.w3.org/2000/svg">
<path fill-rule="evenodd" clip-rule="evenodd" d="M2.9999 1.5999C2.2267 1.5999 1.5999 2.2267 1.5999 2.9999V14.3999H2.5999V3.1999H21.3999V14.3999H22.3999V2.9999C22.3999 2.2267 21.7731 1.5999 20.9999 1.5999H2.9999ZM0.399902 2.9999C0.399902 1.56396 1.56396 0.399902 2.9999 0.399902H20.9999C22.4358 0.399902 23.5999 1.56396 23.5999 2.9999V15.5999H20.1999V4.3999H3.7999V15.5999H0.399902V2.9999ZM4.7999 6.5999C4.7999 6.26853 5.06853 5.9999 5.3999 5.9999H18.5999C18.9313 5.9999 19.1999 6.26853 19.1999 6.5999C19.1999 6.93127 18.9313 7.1999 18.5999 7.1999H5.3999C5.06853 7.1999 4.7999 6.93127 4.7999 6.5999ZM4.7999 9.9999C4.7999 9.66853 5.06853 9.3999 5.3999 9.3999H18.5999C18.9313 9.3999 19.1999 9.66853 19.1999 9.9999C19.1999 10.3313 18.9313 10.5999 18.5999 10.5999H5.3999C5.06853 10.5999 4.7999 10.3313 4.7999 9.9999ZM4.7999 13.4999C4.7999 13.1685 5.06853 12.8999 5.3999 12.8999H18.5999C18.9313 12.8999 19.1999 13.1685 19.1999 13.4999C19.1999 13.8313 18.9313 14.0999 18.5999 14.0999H5.3999C5.06853 14.0999 4.7999 13.8313 4.7999 13.4999Z" fill="#3A8480"/>
</svg>
