<svg width="82" height="82" viewBox="0 0 82 82" fill="none" xmlns="http://www.w3.org/2000/svg">
<path d="M19.3172 13.0234L17.6632 11.7484L16.9373 11.1889C16.4065 10.7797 15.6546 10.8281 15.1806 11.3019L12.0941 14.3875C11.6128 14.8687 11.5711 15.6352 11.9974 16.1657L12.5459 16.8482L13.8436 18.4631C15.4618 16.4546 17.2984 14.6294 19.3172 13.0234Z" fill="#222828"/>
<path d="M68.3816 18.7325L69.5719 17.0678L70.1048 16.3226C70.4841 15.7922 70.4241 15.0652 69.9629 14.6041L66.6415 11.2838C66.2139 10.8562 65.552 10.77 65.0291 11.0739L64.0874 11.6209L62.2588 12.6834C64.5402 14.4403 66.5978 16.4733 68.3816 18.7325Z" fill="#222828"/>
<path d="M13.7075 61.9807L12.5203 63.5956L11.9939 64.3117C11.6115 64.8319 11.6567 65.5513 12.1012 66.0195L15.2419 69.3274C15.7225 69.8336 16.5123 69.8835 17.0528 69.4416L17.7058 68.9078L19.3172 67.5903C17.2416 65.9391 15.3586 64.0562 13.7075 61.9807Z" fill="#222828"/>
<path d="M62.4777 67.7603L64.1969 68.9078L65.0551 69.4806C65.5617 69.8187 66.233 69.7706 66.6862 69.3636L70.0564 66.337C70.5568 65.8877 70.6442 65.1361 70.2604 64.5839L69.6569 63.7159L68.3816 61.8812C66.6551 64.0679 64.672 66.0427 62.4777 67.7603Z" fill="#222828"/>
<path d="M60.7926 31.9773C61.8477 34.5163 62.4302 37.3011 62.4302 40.2219C62.4302 43.1426 61.8477 45.9274 60.7926 48.4664L73.2515 53.5661C74.9349 49.4789 75.8634 45.0012 75.8634 40.3069C75.8634 35.5799 74.922 31.0727 73.2163 26.9626L60.7926 31.9773Z" fill="#222828"/>
<path d="M21.0833 48.5514C20.0056 45.9896 19.4101 43.1753 19.4101 40.2219C19.4101 37.2685 20.0056 34.4541 21.0833 31.8923L8.82941 26.8776C7.1014 31.0106 6.14694 35.5473 6.14694 40.3069C6.14694 45.0338 7.08837 49.541 8.79401 53.6511L21.0833 48.5514Z" fill="#222828"/>
<path d="M32.7582 20.3201C35.2751 19.2875 38.0311 18.7181 40.9202 18.7181C43.8092 18.7181 46.5652 19.2875 49.0821 20.3201L54.2683 8.06995C50.1798 6.38702 45.7009 5.45879 41.0052 5.45879C36.3094 5.45879 31.8305 6.38702 27.742 8.06995L32.7582 20.3201Z" fill="#222828"/>
<path d="M49.1671 60.0885C46.6274 61.1434 43.8418 61.7257 40.9202 61.7257C37.9985 61.7257 35.2129 61.1434 32.6732 60.0885L27.657 72.5086C31.7684 74.2138 36.2768 75.1549 41.0052 75.1549C45.7335 75.1549 50.242 74.2138 54.3533 72.5086L49.1671 60.0885Z" fill="#222828"/>
<path d="M32.7582 20.3201C35.2751 19.2875 38.0311 18.7181 40.9202 18.7181C43.8092 18.7181 46.5652 19.2875 49.0821 20.3201M32.7582 20.3201L27.742 8.06995M32.7582 20.3201C27.4996 22.4778 23.2852 26.6579 21.0833 31.8923M27.742 8.06995C31.8305 6.38702 36.3094 5.45879 41.0052 5.45879C45.7009 5.45879 50.1798 6.38702 54.2683 8.06995M27.742 8.06995C24.6925 9.32522 21.8603 11.0004 19.3172 13.0234M49.0821 20.3201L54.2683 8.06995M49.0821 20.3201C54.3692 22.4895 58.6007 26.7031 60.7926 31.9773M54.2683 8.06995C57.1453 9.25421 59.8289 10.8122 62.2588 12.6834M60.7926 31.9773C61.8477 34.5163 62.4302 37.3011 62.4302 40.2219C62.4302 43.1426 61.8477 45.9274 60.7926 48.4664M60.7926 31.9773L73.2163 26.9626M73.2163 26.9626C74.922 31.0727 75.8634 35.5799 75.8634 40.3069C75.8634 45.0012 74.9349 49.4789 73.2515 53.5661M73.2163 26.9626C71.9824 23.9891 70.3484 21.2233 68.3816 18.7325M60.7926 48.4664L73.2515 53.5661M60.7926 48.4664C58.6125 53.7123 54.4145 57.909 49.1671 60.0885M73.2515 53.5661C72.0135 56.5719 70.3672 59.3666 68.3816 61.8812M49.1671 60.0885C46.6274 61.1434 43.8418 61.7257 40.9202 61.7257C37.9985 61.7257 35.2129 61.1434 32.6732 60.0885M49.1671 60.0885L54.3533 72.5086M54.3533 72.5086C50.242 74.2138 45.7335 75.1549 41.0052 75.1549C36.2768 75.1549 31.7684 74.2138 27.657 72.5086M54.3533 72.5086C57.2847 71.2929 60.0143 69.6887 62.4777 67.7603M32.6732 60.0885L27.657 72.5086M32.6732 60.0885C27.4542 57.9208 23.2733 53.7576 21.0833 48.5514M27.657 72.5086C24.6399 71.2573 21.8366 69.5945 19.3172 67.5903M21.0833 48.5514C20.0056 45.9896 19.4101 43.1753 19.4101 40.2219C19.4101 37.2685 20.0056 34.4541 21.0833 31.8923M21.0833 48.5514L8.79401 53.6511M8.79401 53.6511C7.08837 49.541 6.14694 45.0338 6.14694 40.3069C6.14694 35.5473 7.1014 31.0106 8.82941 26.8776M8.79401 53.6511C10.0444 56.6643 11.7055 59.464 13.7075 61.9807M21.0833 31.8923L8.82941 26.8776M8.82941 26.8776C10.1041 23.8289 11.7997 20.9998 13.8436 18.4631M19.3172 13.0234C17.2984 14.6294 15.4618 16.4546 13.8436 18.4631M19.3172 13.0234L17.6632 11.7484M13.8436 18.4631L12.5459 16.8482M13.7075 61.9807C15.3586 64.0562 17.2416 65.9391 19.3172 67.5903M13.7075 61.9807L12.5203 63.5956M19.3172 67.5903L17.7058 68.9078M62.4777 67.7603C64.672 66.0427 66.6551 64.0679 68.3816 61.8812M62.4777 67.7603L64.1969 68.9078M68.3816 61.8812L69.6569 63.7159M68.3816 18.7325C66.5978 16.4733 64.5402 14.4403 62.2588 12.6834M68.3816 18.7325L69.5719 17.0678M62.2588 12.6834L64.0874 11.6209M64.1969 68.9078L65.0551 69.4806C65.5617 69.8187 66.233 69.7706 66.6862 69.3636L70.0564 66.337C70.5568 65.8877 70.6442 65.1361 70.2604 64.5839L69.6569 63.7159M64.1969 68.9078C60.9452 72.8069 51.8662 80.6825 41.5633 80.9915C31.2603 81.3005 21.3654 73.0644 17.7058 68.9078M17.7058 68.9078L17.0528 69.4416C16.5123 69.8835 15.7225 69.8336 15.2419 69.3274L12.1012 66.0195C11.6567 65.5513 11.6115 64.8319 11.9939 64.3117L12.5203 63.5956M12.5203 63.5956C7.89169 61.469 1.65659 52.8728 1.03841 40.3069C0.420238 27.7409 7.39356 19.8325 12.5459 16.8482M12.5459 16.8482L11.9974 16.1657C11.5711 15.6352 11.6128 14.8687 12.0941 14.3875L15.1806 11.3019C15.6546 10.8281 16.4065 10.7797 16.9373 11.1889L17.6632 11.7484M17.6632 11.7484C21.5236 8.00676 28.6166 1.65639 37.9572 1.03839C47.2979 0.420399 60.2569 7.40677 64.0874 11.6209M64.0874 11.6209L65.0291 11.0739C65.552 10.77 66.2139 10.8562 66.6415 11.2838L69.9629 14.6041C70.4241 15.0652 70.4841 15.7922 70.1048 16.3226L69.5719 17.0678M69.5719 17.0678C75.0318 20.2364 82.7922 30.8481 80.6285 42.796C78.4649 54.7439 73.2855 61.2917 69.6569 63.7159" stroke="#222828"/>
</svg>
