<svg width="22" height="17" viewBox="0 0 22 17" fill="none" xmlns="http://www.w3.org/2000/svg">
<path fill-rule="evenodd" clip-rule="evenodd" d="M0.892675 0.409684C1.2187 0.350407 1.53105 0.566649 1.59033 0.892675L1.97481 3.00732C1.98752 2.99712 2.00047 2.98652 2.01366 2.97553C2.49081 2.57782 3.04399 2.35434 3.63438 2.38783C4.2212 2.42113 4.75816 2.70334 5.21757 3.15023L5.45823 3.38433C6.15848 4.06548 6.84559 4.32946 7.47505 4.29793C8.10965 4.26614 8.80488 3.92805 9.50316 3.16391L9.55128 3.11125C9.55129 3.11124 9.55128 3.11125 9.55128 3.11125C10.0178 2.60077 10.5912 2.27501 11.2321 2.27501C11.8731 2.27501 12.4465 2.60076 12.9129 3.11125L12.9697 3.17337C13.6568 3.92526 14.3351 4.23069 14.9458 4.23069C15.5566 4.23069 16.2349 3.92526 16.922 3.17337C17.3768 2.67569 17.9352 2.35668 18.5603 2.35188C19.1099 2.34765 19.6089 2.58709 20.0309 2.97609L20.4097 0.892675C20.469 0.566649 20.7813 0.350407 21.1073 0.409684C21.4334 0.468962 21.6496 0.781312 21.5903 1.10734L18.7735 16.6H3.22653L0.964469 4.15866C0.87598 4.03337 0.835226 3.87436 0.86316 3.71123C0.866083 3.69417 0.869699 3.6774 0.873975 3.66094L0.409684 1.10734C0.350407 0.781312 0.566649 0.468962 0.892675 0.409684ZM2.20536 4.27533L4.22802 15.4H17.772L19.7846 4.33059C19.59 4.22977 19.4362 4.0846 19.3243 3.96476C19.024 3.64302 18.7643 3.55034 18.5695 3.55184C18.3741 3.55334 18.1115 3.65055 17.8078 3.98286C16.9688 4.90108 15.9911 5.43069 14.9458 5.43069C13.9006 5.43069 12.9229 4.90108 12.0839 3.98286L12.0271 3.92074C11.7126 3.57658 11.4386 3.47501 11.2321 3.47501C11.0257 3.47501 10.7516 3.57658 10.4371 3.92074L10.389 3.9734C10.389 3.9734 10.389 3.9734 10.389 3.9734C9.54707 4.89474 8.57541 5.44432 7.53508 5.49643C6.4896 5.5488 5.49372 5.09292 4.62152 4.2445L4.38085 4.0104C4.07265 3.71061 3.79522 3.59889 3.56641 3.58591C3.34116 3.57313 3.07745 3.65104 2.78198 3.89731C2.63041 4.02365 2.43487 4.16942 2.20536 4.27533Z" fill="#3A8480"/>
</svg>
