<svg width="18" height="22" viewBox="0 0 18 22" fill="none" xmlns="http://www.w3.org/2000/svg">
<path fill-rule="evenodd" clip-rule="evenodd" d="M8.9999 1.5999C7.87984 1.5999 6.81548 2.22001 6.1694 3.02456C5.51648 3.83761 5.15546 4.77278 5.15546 6.00424V9.40306H12.8443V6.00424C12.8443 5.34996 12.7913 4.84834 12.6506 4.3966C12.5118 3.95091 12.2775 3.52146 11.8729 3.03046C11.0854 2.07486 10.1351 1.5999 8.9999 1.5999ZM14.0443 9.40306V6.00424C14.0443 5.2909 13.9876 4.65418 13.7963 4.03981C13.6031 3.4194 13.2832 2.85498 12.7989 2.26731C11.8087 1.06566 10.5314 0.399902 8.9999 0.399902C7.4533 0.399902 6.06515 1.23787 5.23374 2.27319C4.40916 3.30001 3.95546 4.50045 3.95546 6.00424V9.40306H2.77768C1.40014 9.40306 0.399902 10.6351 0.399902 12.0025V19.0005C0.399902 20.3679 1.40014 21.5999 2.77768 21.5999H15.2221C16.5997 21.5999 17.5999 20.3679 17.5999 19.0005V12.0025C17.5999 10.6351 16.5997 9.40306 15.2221 9.40306H14.0443ZM4.54916 10.6031H2.77768C2.19154 10.6031 1.5999 11.1614 1.5999 12.0025V19.0005C1.5999 19.8416 2.19154 20.3999 2.77768 20.3999H15.2221C15.8083 20.3999 16.3999 19.8416 16.3999 19.0005V12.0025C16.3999 11.1614 15.8083 10.6031 15.2221 10.6031H4.56176C4.55966 10.6031 4.55756 10.6031 4.55546 10.6031C4.55336 10.6031 4.55126 10.6031 4.54916 10.6031Z" fill="#3A8480"/>
</svg>
