<svg width="24" height="18" viewBox="0 0 24 18" fill="none" xmlns="http://www.w3.org/2000/svg">
<path fill-rule="evenodd" clip-rule="evenodd" d="M1.5999 15.0001C1.5999 15.7208 2.26115 16.4001 3.1999 16.4001H20.7999C21.7387 16.4001 22.3999 15.7208 22.3999 15.0001V3.0001C22.3999 2.27943 21.7387 1.6001 20.7999 1.6001L3.1999 1.6001C2.26115 1.6001 1.5999 2.27943 1.5999 3.0001L1.5999 15.0001ZM3.1999 17.6001C1.7086 17.6001 0.399902 16.4886 0.399902 15.0001L0.399902 3.0001C0.399902 1.51162 1.7086 0.400097 3.1999 0.400097H20.7999C22.2912 0.400097 23.5999 1.51162 23.5999 3.0001V15.0001C23.5999 16.4886 22.2912 17.6001 20.7999 17.6001H3.1999ZM2.9999 10.6001C2.66853 10.6001 2.3999 10.3315 2.3999 10.0001V9.9901C2.3999 9.65873 2.66853 9.3901 2.9999 9.3901C3.33127 9.3901 3.5999 9.65873 3.5999 9.9901V10.0001C3.5999 10.3315 3.33127 10.6001 2.9999 10.6001ZM2.9999 8.6001C2.66853 8.6001 2.3999 8.33147 2.3999 8.0001V7.9901C2.3999 7.65873 2.66853 7.3901 2.9999 7.3901C3.33127 7.3901 3.5999 7.65873 3.5999 7.9901V8.0001C3.5999 8.33147 3.33127 8.6001 2.9999 8.6001ZM2.9999 6.6101C2.66853 6.6101 2.3999 6.34147 2.3999 6.0101V6.0001C2.3999 5.66873 2.66853 5.4001 2.9999 5.4001C3.33127 5.4001 3.5999 5.66873 3.5999 6.0001V6.0101C3.5999 6.34147 3.33127 6.6101 2.9999 6.6101ZM2.9999 4.6001C2.66853 4.6001 2.3999 4.33147 2.3999 4.0001V3.9901C2.3999 3.65873 2.66853 3.3901 2.9999 3.3901C3.33127 3.3901 3.5999 3.65873 3.5999 3.9901V4.0001C3.5999 4.33147 3.33127 4.6001 2.9999 4.6001ZM4.9999 15.6001C4.66853 15.6001 4.3999 15.3315 4.3999 15.0001L4.3999 3.0001C4.3999 2.66873 4.66853 2.4001 4.9999 2.4001L20.7999 2.4001C21.1313 2.4001 21.3999 2.66873 21.3999 3.0001V15.0001C21.3999 15.3315 21.1313 15.6001 20.7999 15.6001L4.9999 15.6001ZM5.5999 14.4001L20.1999 14.4001V3.6001L5.5999 3.6001L5.5999 14.4001Z" fill="#3A8480"/>
</svg>
