<svg width="26" height="26" viewBox="0 0 26 26" fill="none" xmlns="http://www.w3.org/2000/svg">
<path fill-rule="evenodd" clip-rule="evenodd" d="M12.9999 1.60002C11.343 1.60002 9.9999 2.94317 9.9999 4.60002C9.9999 6.25688 11.343 7.60002 12.9999 7.60002C14.6568 7.60002 15.9999 6.25688 15.9999 4.60002C15.9999 2.94317 14.6568 1.60002 12.9999 1.60002ZM8.7999 4.60002C8.7999 2.28043 10.6803 0.400024 12.9999 0.400024C15.3195 0.400024 17.1999 2.28043 17.1999 4.60002C17.1999 6.71591 15.6353 8.46635 13.5999 8.75749V24.3842C16.4048 24.2365 19.0649 23.0571 21.0609 21.061C23.057 19.065 24.2364 16.4049 24.3841 13.6H21.3999C21.0685 13.6 20.7999 13.3314 20.7999 13C20.7999 12.6687 21.0685 12.4 21.3999 12.4H24.9999C25.3313 12.4 25.5999 12.6687 25.5999 13C25.5999 16.3418 24.2724 19.5466 21.9095 21.9096C19.5465 24.2725 16.3416 25.6 12.9999 25.6C9.65817 25.6 6.45332 24.2725 4.09036 21.9096C1.7274 19.5466 0.399902 16.3418 0.399902 13C0.399902 12.8409 0.463116 12.6883 0.575638 12.5758C0.68816 12.4632 0.840772 12.4 0.999902 12.4H4.5999C4.93127 12.4 5.1999 12.6687 5.1999 13C5.1999 13.3314 4.93127 13.6 4.5999 13.6H1.61569C1.76341 16.4049 2.94282 19.065 4.93889 21.061C6.93495 23.0571 9.59501 24.2365 12.3999 24.3842V8.75749C10.3645 8.46635 8.7999 6.71591 8.7999 4.60002Z" fill="#3A8480"/>
</svg>
