<svg width="20" height="19" viewBox="0 0 20 19" fill="none" xmlns="http://www.w3.org/2000/svg">
<path fill-rule="evenodd" clip-rule="evenodd" d="M16 1.59999C15.5966 1.59999 15.2096 1.76028 14.9243 2.04558L2.54182 14.4281L1.82466 17.2967L4.69329 16.5795L17.0758 4.19705C17.217 4.05578 17.3291 3.88807 17.4056 3.7035C17.482 3.51892 17.5214 3.3211 17.5214 3.12131C17.5214 2.92153 17.482 2.72371 17.4056 2.53913C17.3291 2.35456 17.217 2.18685 17.0758 2.04558C16.9345 1.90431 16.7668 1.79225 16.5822 1.7158C16.3976 1.63934 16.1998 1.59999 16 1.59999ZM14.0758 1.19705C14.5861 0.686704 15.2783 0.399994 16 0.399994C16.3574 0.399994 16.7113 0.470383 17.0414 0.607142C17.3716 0.743901 17.6716 0.944352 17.9243 1.19705C18.177 1.44975 18.3774 1.74974 18.5142 2.07991C18.651 2.41008 18.7214 2.76394 18.7214 3.12131C18.7214 3.47868 18.651 3.83255 18.5142 4.16272C18.3774 4.49288 18.177 4.79288 17.9243 5.04558L5.4243 17.5456C5.34741 17.6225 5.25106 17.677 5.14556 17.7034L1.14556 18.7034C0.941094 18.7545 0.724801 18.6946 0.575773 18.5456C0.426745 18.3966 0.366835 18.1803 0.417952 17.9758L1.41795 13.9758C1.44433 13.8703 1.49888 13.7739 1.57577 13.6971L14.0758 1.19705ZM9.40004 18.1213C9.40004 17.79 9.66867 17.5213 10 17.5213H19C19.3314 17.5213 19.6 17.79 19.6 18.1213C19.6 18.4527 19.3314 18.7213 19 18.7213H10C9.66867 18.7213 9.40004 18.4527 9.40004 18.1213Z" fill="white"/>
</svg>
