<svg width="26" height="26" viewBox="0 0 26 26" fill="none" xmlns="http://www.w3.org/2000/svg">
<path fill-rule="evenodd" clip-rule="evenodd" d="M9.39999 4.25124C9.39999 2.58723 10.7109 0.400024 13.5 0.400024C14.8859 0.400024 15.9216 0.987941 16.6018 1.76634C17.2663 2.52672 17.6 3.47779 17.6 4.25124V4.85124H16.6V7.44432H17.6V10.2699L16.6441 10.2699L17.5938 23.6498C18.3228 23.6127 19.0467 23.4155 19.7202 23.0582C20.7996 22.4854 22.0739 22.5241 23.1204 23.1586L25.3111 24.487C25.5944 24.6588 25.6849 25.0278 25.513 25.3111C25.3412 25.5945 24.9722 25.6849 24.6889 25.5131L22.4982 24.1847C21.8114 23.7682 20.987 23.7445 20.2826 24.1182C18.4279 25.1022 16.2529 25.1022 14.3982 24.1182L14.3358 24.0851C13.6526 23.7226 12.858 23.7226 12.1748 24.0851L12.1219 24.1131C10.2612 25.1004 8.08923 25.1536 6.18791 24.2569L5.92318 24.132C5.09562 23.7417 4.1499 23.7917 3.35834 24.2717L1.31109 25.5131C1.02774 25.6849 0.658759 25.5945 0.486943 25.3111C0.315128 25.0278 0.405543 24.6588 0.688891 24.487L2.73614 23.2456C3.86908 22.5586 5.24052 22.4833 6.43505 23.0467L6.69978 23.1715C7.56129 23.5778 8.48876 23.7464 9.40413 23.679L10.3559 10.2699L9.39999 10.2699V7.44432H10.4V4.85124H9.39999V4.25124ZM11.6 4.85124V7.44432H15.4V4.85124H11.6ZM16.3043 3.65124H10.6787C10.9357 2.65174 11.8318 1.60002 13.5 1.60002C14.514 1.60002 15.2284 2.01842 15.6982 2.55598C16 2.90138 16.1978 3.29277 16.3043 3.65124ZM16.4 8.64432H10.6V9.06993L16.4 9.06993V8.64432ZM15.4411 10.2699L11.5589 10.2699L10.6237 23.4451C10.9429 23.3448 11.2561 23.2141 11.5595 23.0531L11.6124 23.025C12.6473 22.4759 13.8633 22.4759 14.8982 23.025L14.9607 23.0582C15.4169 23.3002 15.8962 23.4688 16.3847 23.5639L15.4411 10.2699Z" fill="#3A8480"/>
</svg>
