<svg width="340" height="772" viewBox="0 0 340 772" fill="none" xmlns="http://www.w3.org/2000/svg">
<path d="M105.341 140.9V119.97H114.158M105.341 140.9H114.158M105.341 140.9H99.8297V147.509H105.341L105.501 157.423L106.443 215.807M215.557 140.9V119.97H204.536M215.557 140.9H204.536M215.557 140.9H221.068V147.509H215.557L215.237 157.423L213.353 215.807M191.31 119.97V140.9M191.31 119.97H175.879M191.31 119.97H204.536M191.31 140.9H175.879M191.31 140.9H204.536M175.879 119.97V140.9M175.879 119.97H160.449M175.879 119.97V100.142M175.879 140.9H160.449M160.449 119.97V140.9M160.449 119.97H142.814M160.449 140.9H142.814M142.814 140.9V119.97M142.814 140.9H129.588M142.814 119.97H129.588M142.814 119.97V100.142M129.588 119.97V140.9M129.588 119.97H114.158M129.588 140.9H114.158M114.158 119.97V140.9M114.158 119.97V100.142M204.536 119.97V140.9M204.536 119.97V100.142M114.158 100.142H142.814M114.158 100.142L130.69 90.2275C131.033 79.9532 136.681 60.0962 156.04 57.4696L160.449 1L164.848 57.4696C184.12 60.0962 189.105 79.9532 189.105 90.2275L204.536 100.142M204.536 100.142H175.879M142.814 100.142H175.879M106.443 215.807H91.0124M106.443 215.807V245.549M66.7647 245.549V215.807H91.0124M66.7647 245.549H63.4582V254.362H70.0712V270.886H79.9907M66.7647 245.549H91.0124M79.9907 270.886L89.9102 300.628L66.7647 699.398C38.8431 700.132 -17 715.481 -17 771H339C337.898 747.133 319.161 699.398 253.031 699.398L230.988 300.628L240.907 270.886M79.9907 270.886H99.8297H149.427L154.938 303.933H164.858L171.471 270.886H219.966H240.907M240.907 270.886H249.724V252.159H259.644V245.549H256.337M256.337 245.549V215.807H228.783M256.337 245.549H228.783M91.0124 215.807V245.549M91.0124 245.549H106.443M106.443 245.549H108.187H109.654M124.077 215.807V245.549M124.077 215.807H147.223M124.077 215.807H109.654M124.077 245.549H147.223M124.077 245.549H109.654M147.223 215.807V245.549M147.223 215.807H174.777M147.223 245.549H174.777M174.777 215.807V245.549M174.777 215.807H197.923M174.777 245.549H197.923M197.923 215.807V245.549M197.923 215.807H210.39M197.923 245.549H210.39M228.783 245.549V215.807M228.783 245.549H213.353M228.783 215.807H213.353M213.353 245.549V215.807M213.353 245.549H211.857H210.39M109.654 215.807V157.423H210.39V215.807M109.654 215.807V245.549M210.39 215.807V245.549M148.325 330.371H171.471V362.316H148.325V330.371ZM148.325 523.146H171.471V555.092H148.325V523.146ZM148.325 425.106V458.153H171.471V425.106H148.325ZM148.325 631.1H171.471V666.351H148.325V631.1Z" stroke="white" stroke-opacity="0.5" stroke-width="1.2"/>
</svg>
