<svg width="27" height="20" viewBox="0 0 27 20" fill="none" xmlns="http://www.w3.org/2000/svg">
<path fill-rule="evenodd" clip-rule="evenodd" d="M15.5032 1.253C17.2727 0.33745 19.2665 0.147052 21.0916 0.739438C22.9167 1.33183 24.4186 2.65686 25.3131 4.43712C26.2066 6.21523 26.4321 8.32117 25.962 10.3443C25.924 10.508 25.8191 10.6482 25.6728 10.7309C25.5265 10.8136 25.3522 10.8311 25.1924 10.7792L19.105 8.80338L16.2287 17.6649C16.2272 17.6696 16.2256 17.6743 16.224 17.6789C17.393 17.9464 18.6233 17.7891 19.7202 17.2072C20.7996 16.6344 22.0739 16.6731 23.1204 17.3076L25.3111 18.636C25.5944 18.8078 25.6849 19.1768 25.513 19.4601C25.3412 19.7435 24.9722 19.8339 24.6889 19.6621L22.4982 18.3337C21.8114 17.9172 20.987 17.8935 20.2826 18.2672C18.4279 19.2512 16.2529 19.2512 14.3982 18.2672L14.3358 18.2341C13.6526 17.8716 12.858 17.8716 12.1748 18.2341L12.1219 18.2621C10.2612 19.2494 8.08923 19.3026 6.18791 18.4059L5.92318 18.281C5.09562 17.8907 4.1499 17.9407 3.35834 18.4207L1.31109 19.6621C1.02774 19.8339 0.658759 19.7435 0.486943 19.4601C0.315128 19.1768 0.405543 18.8078 0.688891 18.636L2.73614 17.3946C3.86908 16.7076 5.24052 16.6323 6.43505 17.1957L6.69978 17.3205C8.25786 18.0554 10.0317 18.0127 11.5595 17.2021L11.6124 17.174C12.6473 16.6249 13.8633 16.6249 14.8982 17.174L14.9607 17.2072C15.0048 17.2305 15.049 17.2532 15.0935 17.2753L17.9636 8.4329L11.8762 6.45706C11.7164 6.40518 11.5857 6.28865 11.5158 6.13582C11.4459 5.98299 11.4434 5.80787 11.5087 5.65305C12.3164 3.73947 13.7357 2.16744 15.5032 1.253ZM24.9156 9.42777C25.1462 7.86929 24.9087 6.30497 24.2409 4.97591C23.4819 3.46539 22.2237 2.36853 20.7211 1.88082C19.2185 1.39311 17.556 1.54198 16.0546 2.3188C14.7335 3.0023 13.6225 4.12891 12.8939 5.52574L24.9156 9.42777Z" fill="#3A8480"/>
</svg>
