<svg width="16" height="16" viewBox="0 0 16 16" fill="none" xmlns="http://www.w3.org/2000/svg">
<path fill-rule="evenodd" clip-rule="evenodd" d="M7.9999 0.399994C8.33127 0.399994 8.5999 0.668623 8.5999 0.999994V7.39999H14.9999C15.3313 7.39999 15.5999 7.66862 15.5999 7.99999C15.5999 8.33136 15.3313 8.59999 14.9999 8.59999H8.5999V15C8.5999 15.3314 8.33127 15.6 7.9999 15.6C7.66853 15.6 7.3999 15.3314 7.3999 15V8.59999H0.999902C0.668532 8.59999 0.399902 8.33136 0.399902 7.99999C0.399902 7.66862 0.668532 7.39999 0.999902 7.39999H7.3999V0.999994C7.3999 0.668623 7.66853 0.399994 7.9999 0.399994Z" fill="white"/>
</svg>
