<svg width="19" height="19" viewBox="0 0 19 19" fill="none" xmlns="http://www.w3.org/2000/svg">
<path fill-rule="evenodd" clip-rule="evenodd" d="M18.4243 0.575731C18.5873 0.738714 18.6425 0.980653 18.5663 1.19821L12.6163 18.1982C12.5351 18.4304 12.3203 18.5895 12.0745 18.5995C11.8287 18.6095 11.6017 18.4685 11.5017 18.2437L8.19547 10.8046L0.756344 7.49828C0.531536 7.39837 0.390498 7.17134 0.400526 6.92554C0.410554 6.67973 0.569617 6.46495 0.801817 6.38368L17.8018 0.43368C18.0194 0.357537 18.2613 0.412749 18.4243 0.575731ZM9.36568 10.4829L11.9837 16.3734L16.5651 3.28341L9.36568 10.4829ZM15.7166 2.43488L2.62667 7.01636L8.51715 9.63435L15.7166 2.43488Z" fill="white"/>
</svg>
