<svg width="50" height="50" viewBox="0 0 50 50" fill="none" xmlns="http://www.w3.org/2000/svg">
<path d="M34.1757 25.4243C34.4101 25.6586 34.79 25.6586 35.0243 25.4243C35.2586 25.19 35.2586 24.8101 35.0243 24.5757L34.1757 25.4243ZM25 15.4L25.4243 14.9757C25.19 14.7414 24.8101 14.7414 24.5757 14.9757L25 15.4ZM14.9757 24.5757C14.7414 24.8101 14.7414 25.19 14.9757 25.4243C15.2101 25.6586 15.5899 25.6586 15.8243 25.4243L14.9757 24.5757ZM24.4 34.6C24.4 34.9314 24.6686 35.2 25 35.2C25.3314 35.2 25.6 34.9314 25.6 34.6H24.4ZM48.4 25C48.4 37.9235 37.9235 48.4 25 48.4V49.6C38.5862 49.6 49.6 38.5862 49.6 25H48.4ZM25 48.4C12.0765 48.4 1.6 37.9235 1.6 25H0.4C0.4 38.5862 11.4138 49.6 25 49.6V48.4ZM1.6 25C1.6 12.0765 12.0765 1.6 25 1.6V0.4C11.4138 0.4 0.4 11.4138 0.4 25H1.6ZM25 1.6C37.9235 1.6 48.4 12.0765 48.4 25H49.6C49.6 11.4138 38.5862 0.4 25 0.4V1.6ZM35.0243 24.5757L25.4243 14.9757L24.5757 15.8243L34.1757 25.4243L35.0243 24.5757ZM24.5757 14.9757L14.9757 24.5757L15.8243 25.4243L25.4243 15.8243L24.5757 14.9757ZM25.6 34.6V15.4H24.4V34.6H25.6Z" fill="#222828"/>
</svg>
