<svg width="22" height="19" viewBox="0 0 22 19" fill="none" xmlns="http://www.w3.org/2000/svg">
<path fill-rule="evenodd" clip-rule="evenodd" d="M2.9999 1.5999C2.2267 1.5999 1.5999 2.2267 1.5999 2.9999V12.9999C1.5999 13.7731 2.2267 14.3999 2.9999 14.3999H18.9999C19.7731 14.3999 20.3999 13.7731 20.3999 12.9999V2.9999C20.3999 2.2267 19.7731 1.5999 18.9999 1.5999H2.9999ZM11.5999 15.5999H18.9999C20.4358 15.5999 21.5999 14.4358 21.5999 12.9999V2.9999C21.5999 1.56396 20.4358 0.399902 18.9999 0.399902H2.9999C1.56396 0.399902 0.399902 1.56396 0.399902 2.9999V12.9999C0.399902 14.4358 1.56396 15.5999 2.9999 15.5999H10.3999V16.8999H2.9999C2.66853 16.8999 2.3999 17.1685 2.3999 17.4999C2.3999 17.8313 2.66853 18.0999 2.9999 18.0999H18.9999C19.3313 18.0999 19.5999 17.8313 19.5999 17.4999C19.5999 17.1685 19.3313 16.8999 18.9999 16.8999H11.5999V15.5999Z" fill="#3A8480"/>
</svg>
