<svg width="18" height="20" viewBox="0 0 18 20" fill="none" xmlns="http://www.w3.org/2000/svg">
<path d="M16.4 19C16.4 19.3314 16.6686 19.6 17 19.6C17.3314 19.6 17.6 19.3314 17.6 19H16.4ZM13 13V12.4V13ZM5 13V12.4V13ZM1 17H0.4H1ZM0.4 19C0.4 19.3314 0.668629 19.6 1 19.6C1.33137 19.6 1.6 19.3314 1.6 19H0.4ZM17.6 19V17H16.4V19H17.6ZM17.6 17C17.6 15.78 17.1154 14.61 16.2527 13.7473L15.4042 14.5958C16.0418 15.2335 16.4 16.0983 16.4 17H17.6ZM16.2527 13.7473C15.39 12.8846 14.22 12.4 13 12.4V13.6C13.9017 13.6 14.7665 13.9582 15.4042 14.5958L16.2527 13.7473ZM13 12.4H5V13.6H13V12.4ZM5 12.4C3.78 12.4 2.60998 12.8846 1.74731 13.7473L2.59584 14.5958C3.23346 13.9582 4.09826 13.6 5 13.6V12.4ZM1.74731 13.7473C0.884641 14.61 0.4 15.78 0.4 17H1.6C1.6 16.0983 1.95821 15.2335 2.59584 14.5958L1.74731 13.7473ZM0.4 17V19H1.6V17H0.4ZM12.4 5C12.4 6.87777 10.8778 8.4 9 8.4V9.6C11.5405 9.6 13.6 7.54051 13.6 5H12.4ZM9 8.4C7.12223 8.4 5.6 6.87777 5.6 5H4.4C4.4 7.54051 6.45949 9.6 9 9.6V8.4ZM5.6 5C5.6 3.12223 7.12223 1.6 9 1.6V0.4C6.45949 0.4 4.4 2.45949 4.4 5H5.6ZM9 1.6C10.8778 1.6 12.4 3.12223 12.4 5H13.6C13.6 2.45949 11.5405 0.4 9 0.4V1.6Z" fill="white"/>
</svg>
