<svg width="25" height="26" viewBox="0 0 25 26" fill="none" xmlns="http://www.w3.org/2000/svg">
<path fill-rule="evenodd" clip-rule="evenodd" d="M10.9999 5.14513C5.80843 5.14513 1.5999 9.35365 1.5999 14.5451C1.5999 19.7366 5.80843 23.9451 10.9999 23.9451C16.1914 23.9451 20.3999 19.7366 20.3999 14.5451C20.3999 9.35365 16.1914 5.14513 10.9999 5.14513ZM0.399902 14.5451C0.399902 8.69091 5.14568 3.94513 10.9999 3.94513C16.8541 3.94513 21.5999 8.69091 21.5999 14.5451C21.5999 20.3993 16.8541 25.1451 10.9999 25.1451C5.14568 25.1451 0.399902 20.3993 0.399902 14.5451Z" fill="#3A8480"/>
<path fill-rule="evenodd" clip-rule="evenodd" d="M17.8524 0.59113C18.1836 0.601672 18.4436 0.878711 18.4331 1.20991L18.3567 3.6087C18.3462 3.9399 18.0691 4.19985 17.7379 4.18931C17.4067 4.17877 17.1468 3.90173 17.1573 3.57052L17.2337 1.17174C17.2442 0.840535 17.5212 0.580588 17.8524 0.59113ZM22.4548 2.67233C22.6816 2.91398 22.6695 3.29369 22.4278 3.52043L20.6767 5.16355C20.435 5.39029 20.0553 5.37821 19.8286 5.13656C19.6018 4.89491 19.6139 4.5152 19.8556 4.28846L21.6067 2.64534C21.8484 2.41859 22.2281 2.43068 22.4548 2.67233ZM11.0458 6.97782C11.0564 6.64662 11.3334 6.38667 11.6646 6.39721L14.0634 6.47357C14.3946 6.48411 14.6545 6.76115 14.644 7.09235C14.6335 7.42355 14.3564 7.6835 14.0252 7.67296L11.6264 7.59661C11.2952 7.58607 11.0353 7.30903 11.0458 6.97782ZM20.641 7.28323C20.6515 6.95203 20.9285 6.69208 21.2597 6.70262L23.6585 6.77897C23.9897 6.78951 24.2497 7.06655 24.2391 7.39776C24.2286 7.72896 23.9516 7.98891 23.6204 7.97836L21.2216 7.90201C20.8904 7.89147 20.6304 7.61443 20.641 7.28323ZM15.4564 9.23901C15.6831 9.48066 15.671 9.86037 15.4294 10.0871L13.6782 11.7302C13.4366 11.957 13.0569 11.9449 12.8301 11.7032C12.6034 11.4616 12.6155 11.0819 12.8571 10.8551L14.6083 9.21202C14.8499 8.98528 15.2296 8.99736 15.4564 9.23901ZM17.547 10.1863C17.8782 10.1968 18.1382 10.4739 18.1276 10.8051L18.0513 13.2038C18.0408 13.535 17.7637 13.795 17.4325 13.7844C17.1013 13.7739 16.8414 13.4969 16.8519 13.1657L16.9283 10.7669C16.9388 10.4357 17.2158 10.1757 17.547 10.1863Z" fill="#3A8480"/>
</svg>
