<svg width="27" height="24" viewBox="0 0 27 24" fill="none" xmlns="http://www.w3.org/2000/svg">
<path fill-rule="evenodd" clip-rule="evenodd" d="M6.55575 0.399902C5.05545 0.399902 3.85871 1.60051 3.0728 3.17233C2.26895 4.78003 1.78908 6.95907 1.78908 9.33324V16.8016C1.78908 18.2162 1.51517 19.0231 0.851347 20.9786C0.735349 21.3203 0.607382 21.6973 0.466954 22.1185C0.187918 22.9564 0.811417 23.8221 1.69507 23.8221H13.8878C14.7436 23.8221 15.5037 23.2745 15.7747 22.4623L15.8281 22.3023C16.3666 20.6896 16.878 19.1584 16.878 16.8016V9.33324C16.878 5.79301 17.8841 2.93283 19.335 1.41442L20.3045 0.399902H6.55575ZM2.98908 9.33324C2.98908 7.10497 3.44194 5.11734 4.14612 3.70899C4.86824 2.26475 5.75483 1.5999 6.55575 1.5999H17.6616L15.678 15.0301V16.8016C15.678 18.9619 15.2191 20.3365 14.6828 21.9434L14.6363 22.0827C14.5287 22.405 14.2272 22.6221 13.8878 22.6221H1.69507C1.63088 22.6221 1.58514 22.5592 1.60542 22.4978C1.74036 22.0931 1.86569 21.7251 1.98128 21.3857C2.64606 19.4337 2.98908 18.4265 2.98908 16.8016V9.33324Z" fill="#3A8480"/>
<path fill-rule="evenodd" clip-rule="evenodd" d="M21.8335 0.399902C20.3332 0.399902 19.1365 1.60051 18.3506 3.17233C17.5467 4.78003 17.0669 6.95907 17.0669 9.33324C17.0669 11.7074 17.5467 13.8864 18.3506 15.4941C19.1365 17.066 20.3332 18.2666 21.8335 18.2666C23.3338 18.2666 24.5306 17.066 25.3165 15.4941C26.1203 13.8864 26.6002 11.7074 26.6002 9.33324C26.6002 6.95907 26.1203 4.78003 25.3165 3.17233C24.5306 1.60051 23.3338 0.399902 21.8335 0.399902ZM19.4239 3.70899C18.7197 5.11734 18.2669 7.10497 18.2669 9.33324C18.2669 11.5615 18.7197 13.5491 19.4239 14.9575C20.146 16.4017 21.0326 17.0666 21.8335 17.0666C22.6344 17.0666 23.521 16.4017 24.2432 14.9575C24.9473 13.5491 25.4002 11.5615 25.4002 9.33324C25.4002 7.10497 24.9473 5.11734 24.2432 3.70899C23.521 2.26475 22.6344 1.5999 21.8335 1.5999C21.0326 1.5999 20.146 2.26475 19.4239 3.70899Z" fill="#3A8480"/>
<path fill-rule="evenodd" clip-rule="evenodd" d="M5.16686 8.73324C4.45181 8.73324 3.87242 9.31263 3.87242 10.0277C3.87242 10.7427 4.45181 11.3221 5.16686 11.3221C5.88191 11.3221 6.46131 10.7427 6.46131 10.0277C6.46131 9.31263 5.88191 8.73324 5.16686 8.73324ZM5.16686 9.93324C5.11455 9.93324 5.07242 9.97537 5.07242 10.0277C5.07242 10.08 5.11455 10.1221 5.16686 10.1221C5.21917 10.1221 5.26131 10.08 5.26131 10.0277C5.26131 9.97537 5.21917 9.93324 5.16686 9.93324Z" fill="#3A8480"/>
<path fill-rule="evenodd" clip-rule="evenodd" d="M9.50011 8.73324C8.78506 8.73324 8.20566 9.31263 8.20566 10.0277C8.20566 10.7427 8.78506 11.3221 9.50011 11.3221C10.2152 11.3221 10.7946 10.7427 10.7946 10.0277C10.7946 9.31263 10.2152 8.73324 9.50011 8.73324ZM9.50011 9.93324C9.4478 9.93324 9.40566 9.97537 9.40566 10.0277C9.40566 10.08 9.4478 10.1221 9.50011 10.1221C9.55242 10.1221 9.59455 10.08 9.59455 10.0277C9.59455 9.97537 9.55242 9.93324 9.50011 9.93324Z" fill="#3A8480"/>
<path fill-rule="evenodd" clip-rule="evenodd" d="M13.5002 8.73324C12.7851 8.73324 12.2057 9.31263 12.2057 10.0277C12.2057 10.7427 12.7851 11.3221 13.5002 11.3221C14.2152 11.3221 14.7946 10.7427 14.7946 10.0277C14.7946 9.31263 14.2152 8.73324 13.5002 8.73324ZM13.5002 9.93324C13.4479 9.93324 13.4057 9.97537 13.4057 10.0277C13.4057 10.08 13.4479 10.1221 13.5002 10.1221C13.5525 10.1221 13.5946 10.08 13.5946 10.0277C13.5946 9.97537 13.5525 9.93324 13.5002 9.93324Z" fill="#3A8480"/>
<path d="M17.6616 1.5999C16.4082 3.48337 15.678 6.23161 15.678 9.33324V15.0301L17.6616 1.5999Z" fill="#3A8480"/>
<path fill-rule="evenodd" clip-rule="evenodd" d="M21.8335 5.95546C21.1004 5.95546 20.5981 6.5342 20.3148 7.10064C20.0136 7.70297 19.8446 8.49313 19.8446 9.33324C19.8446 10.1733 20.0136 10.9635 20.3148 11.5658C20.5981 12.1323 21.1004 12.711 21.8335 12.711C22.5667 12.711 23.069 12.1323 23.3522 11.5658C23.6534 10.9635 23.8224 10.1733 23.8224 9.33324C23.8224 8.49313 23.6534 7.70297 23.3522 7.10064C23.069 6.5342 22.5667 5.95546 21.8335 5.95546ZM21.3881 7.63734C21.1866 8.04032 21.0446 8.63905 21.0446 9.33324C21.0446 10.0274 21.1866 10.6261 21.3881 11.0291C21.6076 11.468 21.7997 11.511 21.8335 11.511C21.8673 11.511 22.0595 11.468 22.2789 11.0291C22.4804 10.6261 22.6224 10.0274 22.6224 9.33324C22.6224 8.63905 22.4804 8.04032 22.2789 7.63734C22.0595 7.19846 21.8673 7.15546 21.8335 7.15546C21.7997 7.15546 21.6076 7.19846 21.3881 7.63734Z" fill="#3A8480"/>
</svg>
