<svg width="24" height="24" viewBox="0 0 24 24" fill="none" xmlns="http://www.w3.org/2000/svg">
<path fill-rule="evenodd" clip-rule="evenodd" d="M0.575638 0.575638C0.809953 0.341324 1.18985 0.341324 1.42417 0.575638L6.53512 5.68659C6.54141 5.69261 6.54757 5.69878 6.55362 5.70509L10.5244 9.67582C10.5739 9.71211 10.618 9.75599 10.6546 9.8061L23.4242 22.5756C23.6585 22.81 23.6585 23.1899 23.4242 23.4242C23.1899 23.6585 22.81 23.6585 22.5756 23.4242L15.7807 16.6292C15.5837 16.7431 15.3301 16.7394 15.1324 16.599C14.2188 15.9499 13.1257 15.6011 12.0049 15.6011C10.8841 15.6011 9.79111 15.9499 8.87743 16.599C8.6073 16.7909 8.23273 16.7275 8.04081 16.4574C7.84889 16.1872 7.91229 15.8127 8.18243 15.6207C9.29915 14.8274 10.6351 14.4011 12.0049 14.4011C12.6162 14.4011 13.2207 14.486 13.8019 14.6505L9.96085 10.8094C8.27791 11.1509 6.70474 11.9066 5.38476 13.0102C5.13054 13.2228 4.75215 13.189 4.5396 12.9348C4.32704 12.6806 4.36082 12.3022 4.61504 12.0896C5.88842 11.025 7.37294 10.2504 8.96521 9.81374L5.97777 6.8263C4.45942 7.47041 3.0543 8.35599 1.81726 9.44945C1.56897 9.66891 1.18979 9.64555 0.970333 9.39727C0.750872 9.14899 0.774234 8.76981 1.02252 8.55035C2.23587 7.47783 3.59916 6.59077 5.06789 5.91642L0.575638 1.42417C0.341324 1.18985 0.341324 0.809953 0.575638 0.575638ZM16.8575 6.38601C14.8946 5.73281 12.8202 5.48179 10.7581 5.64795C10.4278 5.67456 10.1385 5.42838 10.1119 5.09808C10.0852 4.76778 10.3314 4.47844 10.6617 4.45182C12.8845 4.27272 15.1205 4.54329 17.2364 5.2474C19.3523 5.9515 21.3046 7.0747 22.9769 8.54995C23.2254 8.76917 23.2491 9.14833 23.0299 9.39682C22.8106 9.64531 22.4315 9.66904 22.183 9.44982C20.6316 8.08122 18.8204 7.03922 16.8575 6.38601ZM16.1807 10.7968C16.326 10.499 16.6852 10.3754 16.983 10.5207C17.8471 10.9424 18.655 11.4704 19.3881 12.0925C19.6407 12.3069 19.6718 12.6855 19.4574 12.9382C19.243 13.1908 18.8643 13.2219 18.6117 13.0075C17.9548 12.4501 17.2309 11.977 16.4567 11.5992C16.1589 11.4538 16.0353 11.0946 16.1807 10.7968ZM11.3999 19.9999C11.3999 19.6685 11.6685 19.3999 11.9999 19.3999H12.0099C12.3413 19.3999 12.6099 19.6685 12.6099 19.9999C12.6099 20.3313 12.3413 20.5999 12.0099 20.5999H11.9999C11.6685 20.5999 11.3999 20.3313 11.3999 19.9999Z" fill="#3A8480"/>
</svg>
