<svg width="374" height="296" viewBox="0 0 376 298" fill="none" xmlns="http://www.w3.org/2000/svg">
<path fill-rule="evenodd" clip-rule="evenodd" d="M175.695 2.28655C169.777 1.131 163.661 1.43756 157.892 3.17888C152.123 4.9202 146.88 8.04214 142.628 12.2665C142.393 12.5 142.013 12.4988 141.78 12.2637C141.546 12.0287 141.548 11.6488 141.783 11.4152C146.175 7.05157 151.589 3.82789 157.546 2.03008C163.502 0.232267 169.815 -0.0841736 175.925 1.10879C182.034 2.30175 187.752 4.9673 192.568 8.86912C197.384 12.771 201.151 17.7883 203.532 23.4756C205.913 29.163 206.834 35.3436 206.214 41.4679C205.594 47.5922 203.451 53.4698 199.977 58.5782C196.504 63.6865 191.806 67.8672 186.303 70.7492C180.801 73.6312 174.663 75.1256 168.435 75.0997H0.999902C0.668532 75.0997 0.399902 74.8311 0.399902 74.4997C0.399902 74.1684 0.668532 73.8997 0.999902 73.8997H168.44C174.472 73.9248 180.418 72.4772 185.747 69.6862C191.076 66.8952 195.623 62.8474 198.985 57.9034C202.347 52.9593 204.42 47.272 205.02 41.347C205.62 35.422 204.729 29.4422 202.425 23.939C200.121 18.4358 196.476 13.5792 191.813 9.80154C187.149 6.02381 181.613 3.44209 175.695 2.28655ZM335.47 57.6006C328.071 56.1431 320.421 56.509 313.199 58.666C305.977 60.8229 299.405 64.7042 294.064 69.9659C293.828 70.1985 293.448 70.1956 293.216 69.9596C292.983 69.7235 292.986 69.3436 293.222 69.1111C298.703 63.711 305.447 59.7289 312.856 57.5161C320.265 55.3034 328.112 54.9281 335.702 56.4233C343.293 57.9185 350.394 61.2382 356.378 66.0896C362.361 70.941 367.043 77.1746 370.008 84.2395C372.973 91.3045 374.13 98.9827 373.376 106.595C372.622 114.207 369.98 121.518 365.685 127.88C361.39 134.243 355.575 139.462 348.753 143.075C341.931 146.689 334.314 148.586 326.574 148.6H0.999902C0.668532 148.6 0.399902 148.331 0.399902 148C0.399902 147.669 0.668532 147.4 0.999902 147.4H326.572C334.117 147.387 341.542 145.537 348.191 142.015C354.84 138.493 360.507 133.408 364.691 127.209C368.875 121.011 371.447 113.89 372.182 106.476C372.916 99.0632 371.79 91.5853 368.902 84.7039C366.014 77.8225 361.453 71.7492 355.622 67.0217C349.791 62.2942 342.87 59.0582 335.47 57.6006ZM224.25 220.9C230.477 220.875 236.614 222.369 242.116 225.251C247.619 228.133 252.316 232.313 255.79 237.422C259.264 242.53 261.406 248.408 262.027 254.532C262.647 260.656 261.725 266.837 259.344 272.524C256.963 278.212 253.197 283.229 248.38 287.131C243.564 291.033 237.847 293.698 231.737 294.891C225.628 296.084 219.314 295.768 213.358 293.97C207.402 292.172 201.987 288.948 197.595 284.585C197.36 284.351 197.359 283.971 197.592 283.736C197.826 283.501 198.206 283.5 198.441 283.733C202.693 287.958 207.936 291.08 213.705 292.821C219.474 294.562 225.589 294.869 231.507 293.713C237.425 292.558 242.962 289.976 247.625 286.198C252.288 282.421 255.933 277.564 258.237 272.061C260.541 266.558 261.433 260.578 260.833 254.653C260.233 248.728 258.16 243.04 254.798 238.096C251.435 233.152 246.888 229.105 241.559 226.314C236.23 223.523 230.285 222.075 224.252 222.1L224.25 222.1H0.999902C0.668532 222.1 0.399902 221.831 0.399902 221.5C0.399902 221.169 0.668532 220.9 0.999902 220.9L224.247 220.9L224.25 220.9Z" fill="black" fill-opacity="0.5"/>
</svg>
